<?xml version="1.0" encoding="UTF-8" standalone="no"?>
<!DOCTYPE svg PUBLIC "-//W3C//DTD SVG 1.1//EN" "http://www.w3.org/Graphics/SVG/1.1/DTD/svg11.dtd">
<svg width="100%" height="100%" viewBox="0 0 1000 388" version="1.1" xmlns="http://www.w3.org/2000/svg" xmlns:xlink="http://www.w3.org/1999/xlink" xml:space="preserve" xmlns:serif="http://www.serif.com/" style="fill-rule:evenodd;clip-rule:evenodd;stroke-linejoin:round;stroke-miterlimit:2;">
    <g id="Vinted" transform="matrix(1,0,0,0.89937,0,-45.892)">
        <rect x="0" y="51.027" width="999.058" height="431.389" style="fill:none;"/>
        <g transform="matrix(12.0638,0,0,13.4136,0.933618,-41.2649)">
            <path d="M19.248,8.68C19.072,8.68 18.621,8.951 17.517,9.85C17.093,9.999 16.767,9.866 16.26,10.56C13.12,14.87 10.886,28.5 8.23,33.293C7.71,33.103 7.764,22.717 7.468,15.523C7.482,14.574 7.645,14.153 7.586,12.409C7.536,10.931 7.302,9.937 5.762,9.526C3.436,8.906 0.063,10.004 0.017,12.335C-0.108,19.834 0.477,27.945 2.055,35.837C2.47,37.908 4.449,38.249 6.559,38.147C13.298,37.05 14.335,28.924 16.229,22.082C16.96,19.435 18.725,11.386 19.549,9.07C19.595,8.94 19.487,8.647 19.249,8.68M58.639,15.207C57.774,13.996 55.866,13.871 54.362,13.849C54.49,12.609 54.623,11.312 54.747,10.003C54.77,9.759 54.991,9.045 54.616,8.429C54.983,7.519 54.532,7.317 54.08,7.164C52.945,6.782 50.97,6.734 50.475,8.145C49.93,9.788 49.523,11.954 49.322,13.659C48.299,13.729 46.292,13.834 46.287,14.286C46.265,15.916 47.869,16.501 48.996,16.522C48.689,19.27 48.272,23.101 47.918,26.564C45.141,30.321 42.282,33.663 42.021,33.119C41.545,32.155 43.144,26.415 42.001,24.073C41.383,22.833 38.529,22.466 37.389,22.925C35.2,23.797 33.516,27.242 32.8,28.344C33.096,26.874 33.687,23.889 33.894,22.604C34.061,21.685 32.805,20.767 31.947,21.547C30.943,21.915 29.697,21.547 29.399,22.925C29.08,24.508 28.817,26.101 28.609,27.702C26.737,30.45 23.662,34.684 22.77,33.934C21.814,33.117 23.83,25.71 23.952,24.364C24.519,23.257 23.198,21.91 21.803,21.91C21.226,21.91 20.832,21.718 20.366,22.007C18.826,22.92 17.61,28.163 17.754,30.904C17.948,34.607 20.201,35.377 21.132,35.714C23.842,36.699 26.19,34.661 28.175,32.03C28.133,32.746 28.09,33.412 28.123,33.992C28.169,34.787 29.003,34.451 29.975,34.864C31,35.774 31.741,35.303 32.257,34.084C33.649,30.797 34.863,28.16 37.384,25.267C38.324,25.596 36.24,33.349 37.644,34.91C40.522,38.045 44.896,33.817 47.534,30.455C47.417,31.715 47.299,33.889 47.477,35.123C47.534,35.517 47.577,35.789 47.94,36.039C48.414,36.263 49.203,36.459 49.469,36.613C50.009,36.838 49.985,36.983 50.764,36.931C51.041,36.912 51.428,36.626 51.524,35.979C52.558,28.968 54.074,16.605 54.074,16.605C54.559,16.569 56.949,16.238 57.596,16.235C57.73,16.122 58.746,15.356 58.64,15.207M75.72,23.937C70.684,25.493 69.561,34.898 70.882,34.077C72.988,32.77 74.691,29.568 75.712,23.997L75.719,23.937M58.736,27.91C62.572,27.534 63.179,24.77 63.166,23.292C61.289,23.096 59.411,25.505 58.736,27.91M82.62,10.82C80.085,24.854 78.94,35.776 79.105,37.759C79.095,38.025 79.131,38.513 78.732,38.53C78.232,38.52 76.452,38.986 75.483,38.973C74.848,38.964 74.37,36.781 74.637,33.549C73.14,35.329 71.434,36.467 70.112,36.33C68.338,36.147 67.586,33.95 67.485,31.799C64.173,35.63 59.405,36.789 57.284,35.349C55.571,34.188 54.976,32.241 54.944,30.381C54.879,26.704 58.59,21.374 62.83,21.345L62.862,21.346L62.927,21.35C64.166,21.449 65.344,23.596 65.447,24.97C65.649,27.675 63.224,31.036 58.477,29.8C58.522,31.382 59.347,32.603 61.393,32.513C63.898,32.403 65.709,30.577 67.856,27.931C67.857,27.926 67.858,27.921 67.859,27.916C69.013,23.79 72.079,20.306 76.285,19.892C76.717,16.938 77.058,14.201 78.015,10.215C78.131,9.6 79.066,9.207 79.558,9.357C80.53,8.556 82.594,8.087 82.731,9.593C82.763,9.943 82.659,10.574 82.621,10.821M21.317,17.005C21.269,15.883 23.753,15.135 24.559,15.135C25.803,15.135 26.025,16.128 26.075,17.295C26.119,18.335 25.018,19.249 23.88,19.249C21.992,19.249 21.318,17.046 21.317,17.005" style="fill:rgb(9,177,186);"/>
        </g>
    </g>
</svg>
